<svg width="51" height="52" viewBox="0 0 51 52" fill="none" xmlns="http://www.w3.org/2000/svg">
<path d="M49 48C50.1046 48 51 48.8954 51 50C51 51.1046 50.1046 52 49 52C47.8954 52 47 51.1046 47 50C47 48.8954 47.8954 48 49 48Z" fill="#808080" fill-opacity="0.3"/>
<path d="M38 48C39.1046 48 40 48.8954 40 50C40 51.1046 39.1046 52 38 52C36.8954 52 36 51.1046 36 50C36 48.8954 36.8954 48 38 48Z" fill="#808080" fill-opacity="0.3"/>
<path d="M26 24C27.1046 24 28 24.8954 28 26C28 27.1046 27.1046 28 26 28C24.8954 28 24 27.1046 24 26C24 24.8954 24.8954 24 26 24Z" fill="#808080" fill-opacity="0.3"/>
<path d="M49 24C50.1046 24 51 24.8954 51 26C51 27.1046 50.1046 28 49 28C47.8954 28 47 27.1046 47 26C47 24.8954 47.8954 24 49 24Z" fill="#808080" fill-opacity="0.3"/>
<path d="M14 24C15.1046 24 16 24.8954 16 26C16 27.1046 15.1046 28 14 28C12.8954 28 12 27.1046 12 26C12 24.8954 12.8954 24 14 24Z" fill="#808080" fill-opacity="0.3"/>
<path d="M38 24C39.1046 24 40 24.8954 40 26C40 27.1046 39.1046 28 38 28C36.8954 28 36 27.1046 36 26C36 24.8954 36.8954 24 38 24Z" fill="#808080" fill-opacity="0.3"/>
<path d="M26 36C27.1046 36 28 36.8954 28 38C28 39.1046 27.1046 40 26 40C24.8954 40 24 39.1046 24 38C24 36.8954 24.8954 36 26 36Z" fill="#808080" fill-opacity="0.3"/>
<path d="M49 36C50.1046 36 51 36.8954 51 38C51 39.1046 50.1046 40 49 40C47.8954 40 47 39.1046 47 38C47 36.8954 47.8954 36 49 36Z" fill="#808080" fill-opacity="0.3"/>
<path d="M14 36C15.1046 36 16 36.8954 16 38C16 39.1046 15.1046 40 14 40C12.8954 40 12 39.1046 12 38C12 36.8954 12.8954 36 14 36Z" fill="#808080" fill-opacity="0.3"/>
<path d="M38 36C39.1046 36 40 36.8954 40 38C40 39.1046 39.1046 40 38 40C36.8954 40 36 39.1046 36 38C36 36.8954 36.8954 36 38 36Z" fill="#808080" fill-opacity="0.3"/>
<path d="M2 12C3.10457 12 4 12.8954 4 14C4 15.1046 3.10457 16 2 16C0.895429 16 -1.61275e-06 15.1046 -1.66103e-06 14C-1.70931e-06 12.8954 0.895429 12 2 12Z" fill="#808080" fill-opacity="0.3"/>
<path d="M26 12C27.1046 12 28 12.8954 28 14C28 15.1046 27.1046 16 26 16C24.8954 16 24 15.1046 24 14C24 12.8954 24.8954 12 26 12Z" fill="#808080" fill-opacity="0.3"/>
<path d="M49 12C50.1046 12 51 12.8954 51 14C51 15.1046 50.1046 16 49 16C47.8954 16 47 15.1046 47 14C47 12.8954 47.8954 12 49 12Z" fill="#808080" fill-opacity="0.3"/>
<path d="M14 12C15.1046 12 16 12.8954 16 14C16 15.1046 15.1046 16 14 16C12.8954 16 12 15.1046 12 14C12 12.8954 12.8954 12 14 12Z" fill="#808080" fill-opacity="0.3"/>
<path d="M38 12C39.1046 12 40 12.8954 40 14C40 15.1046 39.1046 16 38 16C36.8954 16 36 15.1046 36 14C36 12.8954 36.8954 12 38 12Z" fill="#808080" fill-opacity="0.3"/>
<path d="M2 -8.74228e-08C3.10457 -1.35705e-07 4 0.895431 4 2C4 3.10457 3.10457 4 2 4C0.895428 4 -2.13729e-06 3.10457 -2.18557e-06 2C-2.23385e-06 0.895432 0.895428 -3.91405e-08 2 -8.74228e-08Z" fill="#808080" fill-opacity="0.3"/>
<path d="M26 -1.1365e-06C27.1046 -1.18478e-06 28 0.89543 28 2C28 3.10457 27.1046 4 26 4C24.8954 4 24 3.10457 24 2C24 0.89543 24.8954 -1.08821e-06 26 -1.1365e-06Z" fill="#808080" fill-opacity="0.3"/>
<path d="M49 -2.14186e-06C50.1046 -2.19014e-06 51 0.895429 51 2C51 3.10457 50.1046 4 49 4C47.8954 4 47 3.10457 47 2C47 0.895429 47.8954 -2.09358e-06 49 -2.14186e-06Z" fill="#808080" fill-opacity="0.3"/>
<path d="M14 -6.11959e-07C15.1046 -6.60242e-07 16 0.895431 16 2C16 3.10457 15.1046 4 14 4C12.8954 4 12 3.10457 12 2C12 0.895431 12.8954 -5.63677e-07 14 -6.11959e-07Z" fill="#808080" fill-opacity="0.3"/>
<path d="M38 -1.66103e-06C39.1046 -1.70931e-06 40 0.89543 40 2C40 3.10457 39.1046 4 38 4C36.8954 4 36 3.10457 36 2C36 0.89543 36.8954 -1.61275e-06 38 -1.66103e-06Z" fill="#808080" fill-opacity="0.3"/>
</svg>
