<svg width="51" height="52" viewBox="0 0 51 52" fill="none" xmlns="http://www.w3.org/2000/svg">
<path d="M2 48C0.89543 48 3.70216e-08 48.8954 2.38498e-08 50C1.06779e-08 51.1046 0.89543 52 2 52C3.10457 52 4 51.1046 4 50C4 48.8954 3.10457 48 2 48Z" fill="#808080" fill-opacity="0.3"/>
<path d="M13 48C11.8954 48 11 48.8954 11 50C11 51.1046 11.8954 52 13 52C14.1046 52 15 51.1046 15 50C15 48.8954 14.1046 48 13 48Z" fill="#808080" fill-opacity="0.3"/>
<path d="M25 24C23.8954 24 23 24.8954 23 26C23 27.1046 23.8954 28 25 28C26.1046 28 27 27.1046 27 26C27 24.8954 26.1046 24 25 24Z" fill="#808080" fill-opacity="0.3"/>
<path d="M2 24C0.895431 24 3.23219e-07 24.8954 3.10047e-07 26C2.96875e-07 27.1046 0.895431 28 2 28C3.10457 28 4 27.1046 4 26C4 24.8954 3.10457 24 2 24Z" fill="#808080" fill-opacity="0.3"/>
<path d="M37 24C35.8954 24 35 24.8954 35 26C35 27.1046 35.8954 28 37 28C38.1046 28 39 27.1046 39 26C39 24.8954 38.1046 24 37 24Z" fill="#808080" fill-opacity="0.3"/>
<path d="M13 24C11.8954 24 11 24.8954 11 26C11 27.1046 11.8954 28 13 28C14.1046 28 15 27.1046 15 26C15 24.8954 14.1046 24 13 24Z" fill="#808080" fill-opacity="0.3"/>
<path d="M25 36C23.8954 36 23 36.8954 23 38C23 39.1046 23.8954 40 25 40C26.1046 40 27 39.1046 27 38C27 36.8954 26.1046 36 25 36Z" fill="#808080" fill-opacity="0.3"/>
<path d="M2 36C0.895431 36 1.8012e-07 36.8954 1.66948e-07 38C1.53776e-07 39.1046 0.895431 40 2 40C3.10457 40 4 39.1046 4 38C4 36.8954 3.10457 36 2 36Z" fill="#808080" fill-opacity="0.3"/>
<path d="M37 36C35.8954 36 35 36.8954 35 38C35 39.1046 35.8954 40 37 40C38.1046 40 39 39.1046 39 38C39 36.8954 38.1046 36 37 36Z" fill="#808080" fill-opacity="0.3"/>
<path d="M13 36C11.8954 36 11 36.8954 11 38C11 39.1046 11.8954 40 13 40C14.1046 40 15 39.1046 15 38C15 36.8954 14.1046 36 13 36Z" fill="#808080" fill-opacity="0.3"/>
<path d="M49 12C47.8954 12 47 12.8954 47 14C47 15.1046 47.8954 16 49 16C50.1046 16 51 15.1046 51 14C51 12.8954 50.1046 12 49 12Z" fill="#808080" fill-opacity="0.3"/>
<path d="M25 12C23.8954 12 23 12.8954 23 14C23 15.1046 23.8954 16 25 16C26.1046 16 27 15.1046 27 14C27 12.8954 26.1046 12 25 12Z" fill="#808080" fill-opacity="0.3"/>
<path d="M2 12C0.895431 12 4.66317e-07 12.8954 4.53145e-07 14C4.39974e-07 15.1046 0.895431 16 2 16C3.10457 16 4 15.1046 4 14C4 12.8954 3.10457 12 2 12Z" fill="#808080" fill-opacity="0.3"/>
<path d="M37 12C35.8954 12 35 12.8954 35 14C35 15.1046 35.8954 16 37 16C38.1046 16 39 15.1046 39 14C39 12.8954 38.1046 12 37 12Z" fill="#808080" fill-opacity="0.3"/>
<path d="M13 12C11.8954 12 11 12.8954 11 14C11 15.1046 11.8954 16 13 16C14.1046 16 15 15.1046 15 14C15 12.8954 14.1046 12 13 12Z" fill="#808080" fill-opacity="0.3"/>
<path d="M49 -2.38498e-08C47.8954 -3.70216e-08 47 0.89543 47 2C47 3.10457 47.8954 4 49 4C50.1046 4 51 3.10457 51 2C51 0.89543 50.1046 -1.06779e-08 49 -2.38498e-08Z" fill="#808080" fill-opacity="0.3"/>
<path d="M25 -3.10047e-07C23.8954 -3.23219e-07 23 0.89543 23 2C23 3.10457 23.8954 4 25 4C26.1046 4 27 3.10457 27 2C27 0.89543 26.1046 -2.96875e-07 25 -3.10047e-07Z" fill="#808080" fill-opacity="0.3"/>
<path d="M2 -5.84319e-07C0.895431 -5.97491e-07 6.09416e-07 0.89543 5.96244e-07 2C5.83072e-07 3.10457 0.895431 4 2 4C3.10457 4 4 3.10457 4 2C4 0.89543 3.10457 -5.71147e-07 2 -5.84319e-07Z" fill="#808080" fill-opacity="0.3"/>
<path d="M37 -1.66948e-07C35.8954 -1.8012e-07 35 0.89543 35 2C35 3.10457 35.8954 4 37 4C38.1046 4 39 3.10457 39 2C39 0.89543 38.1046 -1.53776e-07 37 -1.66948e-07Z" fill="#808080" fill-opacity="0.3"/>
<path d="M13 -4.53145e-07C11.8954 -4.66317e-07 11 0.89543 11 2C11 3.10457 11.8954 4 13 4C14.1046 4 15 3.10457 15 2C15 0.89543 14.1046 -4.39974e-07 13 -4.53145e-07Z" fill="#808080" fill-opacity="0.3"/>
</svg>
