<svg width="52" height="51" viewBox="0 0 52 51" fill="none" xmlns="http://www.w3.org/2000/svg">
<path d="M48 2C48 0.895432 48.8954 2.7141e-07 50 1.74846e-07C51.1046 7.8281e-08 52 0.895432 52 2C52 3.10457 51.1046 4 50 4C48.8954 4 48 3.10457 48 2Z" fill="#E6A40B"/>
<path d="M48 13C48 11.8954 48.8954 11 50 11C51.1046 11 52 11.8954 52 13C52 14.1046 51.1046 15 50 15C48.8954 15 48 14.1046 48 13Z" fill="#E6A40B"/>
<path d="M24 25C24 23.8954 24.8954 23 26 23C27.1046 23 28 23.8954 28 25C28 26.1046 27.1046 27 26 27C24.8954 27 24 26.1046 24 25Z" fill="#E6A40B"/>
<path d="M24 2C24 0.895434 24.8954 2.36956e-06 26 2.27299e-06C27.1046 2.17643e-06 28 0.895434 28 2C28 3.10457 27.1046 4 26 4C24.8954 4 24 3.10457 24 2Z" fill="#E6A40B"/>
<path d="M24 37C24 35.8954 24.8954 35 26 35C27.1046 35 28 35.8954 28 37C28 38.1046 27.1046 39 26 39C24.8954 39 24 38.1046 24 37Z" fill="#E6A40B"/>
<path d="M24 13C24 11.8954 24.8954 11 26 11C27.1046 11 28 11.8954 28 13C28 14.1046 27.1046 15 26 15C24.8954 15 24 14.1046 24 13Z" fill="#E6A40B"/>
<path d="M36 25C36 23.8954 36.8954 23 38 23C39.1046 23 40 23.8954 40 25C40 26.1046 39.1046 27 38 27C36.8954 27 36 26.1046 36 25Z" fill="#E6A40B"/>
<path d="M36 2C36 0.895433 36.8954 1.32048e-06 38 1.22392e-06C39.1046 1.12735e-06 40 0.895433 40 2C40 3.10457 39.1046 4 38 4C36.8954 4 36 3.10457 36 2Z" fill="#E6A40B"/>
<path d="M36 37C36 35.8954 36.8954 35 38 35C39.1046 35 40 35.8954 40 37C40 38.1046 39.1046 39 38 39C36.8954 39 36 38.1046 36 37Z" fill="#E6A40B"/>
<path d="M36 13C36 11.8954 36.8954 11 38 11C39.1046 11 40 11.8954 40 13C40 14.1046 39.1046 15 38 15C36.8954 15 36 14.1046 36 13Z" fill="#E6A40B"/>
<path d="M12 49C12 47.8954 12.8954 47 14 47C15.1046 47 16 47.8954 16 49C16 50.1046 15.1046 51 14 51C12.8954 51 12 50.1046 12 49Z" fill="#E6A40B"/>
<path d="M12 25C12 23.8954 12.8954 23 14 23C15.1046 23 16 23.8954 16 25C16 26.1046 15.1046 27 14 27C12.8954 27 12 26.1046 12 25Z" fill="#E6A40B"/>
<path d="M12 2C12 0.895435 12.8954 3.41863e-06 14 3.32207e-06C15.1046 3.2255e-06 16 0.895435 16 2C16 3.10457 15.1046 4 14 4C12.8954 4 12 3.10457 12 2Z" fill="#E6A40B"/>
<path d="M12 37C12 35.8954 12.8954 35 14 35C15.1046 35 16 35.8954 16 37C16 38.1046 15.1046 39 14 39C12.8954 39 12 38.1046 12 37Z" fill="#E6A40B"/>
<path d="M12 13C12 11.8954 12.8954 11 14 11C15.1046 11 16 11.8954 16 13C16 14.1046 15.1046 15 14 15C12.8954 15 12 14.1046 12 13Z" fill="#E6A40B"/>
<path d="M-1.74846e-07 49C-2.7141e-07 47.8954 0.895431 47 2 47C3.10457 47 4 47.8954 4 49C4 50.1046 3.10457 51 2 51C0.895432 51 -7.8281e-08 50.1046 -1.74846e-07 49Z" fill="#E6A40B"/>
<path d="M-2.27299e-06 25C-2.36956e-06 23.8954 0.895429 23 2 23C3.10457 23 4 23.8954 4 25C4 26.1046 3.10457 27 2 27C0.895429 27 -2.17643e-06 26.1046 -2.27299e-06 25Z" fill="#E6A40B"/>
<path d="M-4.28372e-06 2C-4.38028e-06 0.895436 0.895427 4.4677e-06 2 4.37114e-06C3.10456 4.27457e-06 4 0.895436 4 2C4 3.10457 3.10456 4 2 4C0.895427 4 -4.18715e-06 3.10457 -4.28372e-06 2Z" fill="#E6A40B"/>
<path d="M-1.22392e-06 37C-1.32048e-06 35.8954 0.89543 35 2 35C3.10457 35 4 35.8954 4 37C4 38.1046 3.10457 39 2 39C0.89543 39 -1.12735e-06 38.1046 -1.22392e-06 37Z" fill="#E6A40B"/>
<path d="M-3.32207e-06 13C-3.41863e-06 11.8954 0.895428 11 2 11C3.10456 11 4 11.8954 4 13C4 14.1046 3.10457 15 2 15C0.895428 15 -3.2255e-06 14.1046 -3.32207e-06 13Z" fill="#E6A40B"/>
</svg>
