<svg width="51" height="52" viewBox="0 0 51 52" fill="none" xmlns="http://www.w3.org/2000/svg">
<path d="M2 4C0.895432 4 3.70216e-08 3.10457 2.38498e-08 2C1.06779e-08 0.895431 0.895432 5.97491e-07 2 5.84319e-07C3.10457 5.71147e-07 4 0.895431 4 2C4 3.10457 3.10457 4 2 4Z" fill="#808080" fill-opacity="0.3"/>
<path d="M13 4C11.8954 4 11 3.10457 11 2C11 0.895431 11.8954 4.66317e-07 13 4.53145e-07C14.1046 4.39974e-07 15 0.895431 15 2C15 3.10457 14.1046 4 13 4Z" fill="#808080" fill-opacity="0.3"/>
<path d="M25 28C23.8954 28 23 27.1046 23 26C23 24.8954 23.8954 24 25 24C26.1046 24 27 24.8954 27 26C27 27.1046 26.1046 28 25 28Z" fill="#808080" fill-opacity="0.3"/>
<path d="M2 28C0.895432 28 3.23219e-07 27.1046 3.10047e-07 26C2.96875e-07 24.8954 0.895432 24 2 24C3.10457 24 4 24.8954 4 26C4 27.1046 3.10457 28 2 28Z" fill="#808080" fill-opacity="0.3"/>
<path d="M37 28C35.8954 28 35 27.1046 35 26C35 24.8954 35.8954 24 37 24C38.1046 24 39 24.8954 39 26C39 27.1046 38.1046 28 37 28Z" fill="#808080" fill-opacity="0.3"/>
<path d="M13 28C11.8954 28 11 27.1046 11 26C11 24.8954 11.8954 24 13 24C14.1046 24 15 24.8954 15 26C15 27.1046 14.1046 28 13 28Z" fill="#808080" fill-opacity="0.3"/>
<path d="M25 16C23.8954 16 23 15.1046 23 14C23 12.8954 23.8954 12 25 12C26.1046 12 27 12.8954 27 14C27 15.1046 26.1046 16 25 16Z" fill="#808080" fill-opacity="0.3"/>
<path d="M2 16C0.895432 16 1.8012e-07 15.1046 1.66948e-07 14C1.53776e-07 12.8954 0.895432 12 2 12C3.10457 12 4 12.8954 4 14C4 15.1046 3.10457 16 2 16Z" fill="#808080" fill-opacity="0.3"/>
<path d="M37 16C35.8954 16 35 15.1046 35 14C35 12.8954 35.8954 12 37 12C38.1046 12 39 12.8954 39 14C39 15.1046 38.1046 16 37 16Z" fill="#808080" fill-opacity="0.3"/>
<path d="M13 16C11.8954 16 11 15.1046 11 14C11 12.8954 11.8954 12 13 12C14.1046 12 15 12.8954 15 14C15 15.1046 14.1046 16 13 16Z" fill="#808080" fill-opacity="0.3"/>
<path d="M49 40C47.8954 40 47 39.1046 47 38C47 36.8954 47.8954 36 49 36C50.1046 36 51 36.8954 51 38C51 39.1046 50.1046 40 49 40Z" fill="#808080" fill-opacity="0.3"/>
<path d="M25 40C23.8954 40 23 39.1046 23 38C23 36.8954 23.8954 36 25 36C26.1046 36 27 36.8954 27 38C27 39.1046 26.1046 40 25 40Z" fill="#808080" fill-opacity="0.3"/>
<path d="M2 40C0.895432 40 4.66317e-07 39.1046 4.53145e-07 38C4.39974e-07 36.8954 0.895432 36 2 36C3.10457 36 4 36.8954 4 38C4 39.1046 3.10457 40 2 40Z" fill="#808080" fill-opacity="0.3"/>
<path d="M37 40C35.8954 40 35 39.1046 35 38C35 36.8954 35.8954 36 37 36C38.1046 36 39 36.8954 39 38C39 39.1046 38.1046 40 37 40Z" fill="#808080" fill-opacity="0.3"/>
<path d="M13 40C11.8954 40 11 39.1046 11 38C11 36.8954 11.8954 36 13 36C14.1046 36 15 36.8954 15 38C15 39.1046 14.1046 40 13 40Z" fill="#808080" fill-opacity="0.3"/>
<path d="M49 52C47.8954 52 47 51.1046 47 50C47 48.8954 47.8954 48 49 48C50.1046 48 51 48.8954 51 50C51 51.1046 50.1046 52 49 52Z" fill="#808080" fill-opacity="0.3"/>
<path d="M25 52C23.8954 52 23 51.1046 23 50C23 48.8954 23.8954 48 25 48C26.1046 48 27 48.8954 27 50C27 51.1046 26.1046 52 25 52Z" fill="#808080" fill-opacity="0.3"/>
<path d="M2 52C0.895432 52 6.09416e-07 51.1046 5.96244e-07 50C5.83072e-07 48.8954 0.895432 48 2 48C3.10457 48 4 48.8954 4 50C4 51.1046 3.10457 52 2 52Z" fill="#808080" fill-opacity="0.3"/>
<path d="M37 52C35.8954 52 35 51.1046 35 50C35 48.8954 35.8954 48 37 48C38.1046 48 39 48.8954 39 50C39 51.1046 38.1046 52 37 52Z" fill="#808080" fill-opacity="0.3"/>
<path d="M13 52C11.8954 52 11 51.1046 11 50C11 48.8954 11.8954 48 13 48C14.1046 48 15 48.8954 15 50C15 51.1046 14.1046 52 13 52Z" fill="#808080" fill-opacity="0.3"/>
</svg>
