<svg width="32" height="32" viewBox="0 0 32 32" fill="none" xmlns="http://www.w3.org/2000/svg">
<circle cx="16" cy="16" r="16" fill="white"/>
<path d="M23.5833 12.5833H22.695L20.8533 7.51334C20.7009 7.09529 20.4239 6.73405 20.0597 6.47834C19.6955 6.22264 19.2617 6.08478 18.8167 6.08334H17.0833C16.4875 6.08334 16 6.57084 16 7.16668C16 7.76251 16.4875 8.25001 17.0833 8.25001H18.8167L20.3983 12.5833H15.1875L14.7975 11.5H14.895C15.4908 11.5 15.9783 11.0125 15.9783 10.4167C15.9783 9.82084 15.4908 9.33334 14.895 9.33334H11.6667C11.0708 9.33334 10.5833 9.82084 10.5833 10.4167C10.5833 11.0125 11.0708 11.5 11.6667 11.5H12.4792L14.4508 16.9167H13.725C13.2483 14.5008 11.2225 12.7133 8.6875 12.5942C5.65417 12.4425 3 14.9667 3 18C3 21.0333 5.38333 23.4167 8.41667 23.4167C11.0817 23.4167 13.2375 21.5858 13.725 19.0833H18.275C18.7517 21.4992 20.7775 23.2867 23.3125 23.4058C26.3458 23.5467 29 21.0333 29 17.9892C29 14.9667 26.6167 12.5833 23.5833 12.5833ZM9.5 19.0833H11.4717C11.0167 20.4158 9.73833 21.3367 8.2 21.2392C6.58583 21.1417 5.2425 19.7767 5.16667 18.1517C5.09083 16.2558 6.5425 14.75 8.41667 14.75C9.8575 14.75 11.0383 15.6492 11.4717 16.9167H9.5C8.90417 16.9167 8.41667 17.4042 8.41667 18C8.41667 18.5958 8.90417 19.0833 9.5 19.0833ZM18.275 16.9167H16.7583L15.9675 14.75H19.25C18.7733 15.3783 18.4267 16.1042 18.275 16.9167ZM23.4533 21.25C21.785 21.185 20.3767 19.7658 20.3333 18.0867C20.3117 17.0467 20.7558 16.1367 21.4708 15.53L22.1425 17.3717C22.3483 17.935 22.9658 18.2275 23.5292 18.0217C24.0925 17.8158 24.385 17.1983 24.1792 16.635L23.4967 14.7608L23.5075 14.75C23.9418 14.7352 24.3747 14.8086 24.7799 14.9657C25.1851 15.1228 25.5543 15.3604 25.8651 15.6641C26.1759 15.9679 26.422 16.3315 26.5884 16.7329C26.7548 17.1344 26.8381 17.5654 26.8333 18C26.8333 19.8633 25.3383 21.315 23.4533 21.25Z" fill="url(#paint0_linear_102_190)"/>
<defs>
<linearGradient id="paint0_linear_102_190" x1="16" y1="6.08334" x2="16" y2="23.4167" gradientUnits="userSpaceOnUse">
<stop stop-color="#FFB60D"/>
<stop offset="1" stop-color="#E59317"/>
</linearGradient>
</defs>
</svg>
